<?xml version="1.0" standalone="no"?>
<!DOCTYPE svg PUBLIC "-//W3C//DTD SVG 20010904//EN"
 "http://www.w3.org/TR/2001/REC-SVG-20010904/DTD/svg10.dtd">
<svg version="1.0" xmlns="http://www.w3.org/2000/svg"
 width="1200.000000pt" height="1200.000000pt" viewBox="0 0 1200.000000 1200.000000"
 preserveAspectRatio="xMidYMid meet">
<metadata>
Created by potrace 1.11, written by Peter Selinger 2001-2013
</metadata>
<g transform="translate(0.000000,1200.000000) scale(0.100000,-0.100000)"
fill="#000000" stroke="none">
<path d="M4325 11050 c75 -168 156 -349 180 -403 25 -55 45 -103 45 -107 0 -4
-132 -6 -292 -4 l-293 5 67 -68 c36 -37 94 -97 128 -133 322 -337 764 -789
754 -770 -5 8 -45 71 -89 140 -45 69 -112 172 -150 230 -145 223 -219 337
-257 392 -22 32 -37 61 -35 65 3 5 129 8 281 7 l275 0 -32 40 c-28 35 -159
201 -582 741 -44 56 -92 117 -108 136 -18 22 19 -69 108 -271z"/>
<path d="M6979 11283 c-24 -32 -61 -81 -84 -108 -22 -28 -52 -66 -67 -85 -63
-81 -247 -314 -409 -520 -50 -63 -99 -126 -109 -140 l-18 -25 275 0 c151 0
276 -3 278 -6 2 -3 -17 -37 -42 -75 -92 -141 -398 -612 -450 -694 l-55 -85
109 111 c161 166 529 547 601 623 35 36 107 110 160 164 l97 98 -297 -5 -296
-4 15 36 c8 21 31 70 49 110 19 41 34 75 34 77 0 3 16 36 35 76 19 39 37 80
41 92 4 12 23 55 42 97 65 140 142 320 138 320 -2 0 -23 -26 -47 -57z"/>
<path d="M5476 10924 c-91 -22 -174 -71 -251 -149 -168 -169 -203 -409 -90
-624 l36 -67 -1 -261 c-1 -326 -15 -396 -90 -468 l-31 -30 -307 -1 c-288 -2
-311 -3 -377 -24 -143 -45 -239 -122 -335 -266 -25 -39 -57 -97 -69 -128 l-23
-56 -107 -1 c-167 -1 -250 -9 -401 -40 -652 -132 -1207 -613 -1431 -1240 -83
-233 -110 -397 -115 -699 -2 -124 -3 -230 -4 -237 0 -7 -42 -12 -133 -15 -121
-3 -137 -5 -189 -31 -75 -37 -146 -117 -197 -221 -48 -99 -98 -245 -115 -336
-2 -14 -9 -45 -14 -70 -9 -39 -28 -167 -46 -305 -27 -208 -27 -747 -1 -955 3
-19 7 -56 10 -81 3 -25 7 -54 9 -65 2 -10 9 -53 16 -94 48 -298 156 -560 267
-648 82 -64 118 -75 248 -78 66 -2 127 -3 135 -3 13 -1 15 -37 16 -264 0 -144
3 -289 7 -322 41 -370 190 -726 424 -1015 71 -87 1021 -1035 1073 -1070 19
-13 37 -27 40 -31 3 -3 48 -34 100 -69 177 -116 403 -214 600 -261 130 -31
107 -28 280 -47 81 -10 3921 -9 3956 1 12 3 45 8 75 12 30 3 72 11 94 17 22 6
54 12 70 15 69 11 278 87 390 142 382 188 691 489 877 856 81 159 116 249 152
392 59 230 58 214 63 953 3 377 6 687 8 689 2 2 68 4 147 6 127 1 149 4 192
25 121 58 222 216 291 455 27 94 71 316 80 407 13 121 15 147 22 238 14 183 7
632 -12 785 -22 169 -21 162 -29 215 -4 25 -9 56 -12 70 -2 14 -17 81 -34 148
-71 282 -175 456 -309 515 -56 25 -52 24 -244 26 -117 1 -159 4 -161 14 -83
290 -205 529 -377 738 -65 79 -980 994 -1058 1057 -225 183 -543 330 -841 387
-14 3 -34 7 -45 9 -86 16 -178 23 -320 25 l-111 1 -54 108 c-92 181 -234 305
-401 348 -53 14 -118 17 -367 18 l-302 2 -24 25 c-36 39 -65 103 -78 167 -6
31 -10 172 -11 312 l0 255 36 70 c46 90 66 177 62 268 -4 87 -10 112 -35 177
-78 198 -262 328 -475 335 -54 2 -113 -3 -149 -11z m54 -243 c116 -84 55 -265
-89 -263 -52 1 -100 34 -125 85 -21 46 -20 72 5 123 37 78 141 105 209 55z
m146 -958 c2 -184 12 -277 39 -354 8 -21 11 -40 7 -42 -4 -2 -59 -3 -122 -3
-130 1 -121 -6 -97 91 22 85 26 130 26 305 l1 155 72 -2 73 -1 1 -149z m1084
-776 c38 -17 53 -29 89 -70 l24 -27 -1267 0 -1267 0 27 36 c27 35 67 61 111
73 13 3 524 6 1136 5 1006 0 1115 -2 1147 -17z m-1580 -1521 l0 -1065 -22 -7
c-116 -35 -193 -111 -299 -296 -42 -73 -118 -205 -169 -293 -51 -88 -100 -173
-110 -190 -148 -256 -155 -274 -153 -395 1 -91 53 -333 91 -420 44 -101 140
-183 260 -221 54 -17 98 -22 222 -24 85 -2 161 -4 168 -4 10 -1 12 -24 10 -98
l-3 -98 -1115 -1 c-613 -1 -1120 -2 -1125 -3 -7 -1 -11 -255 -11 -801 l0 -800
166 -1 c91 0 598 0 1128 -1 l962 0 0 -469 0 -469 -752 1 c-575 0 -772 4 -833
14 -369 61 -655 211 -916 482 -189 196 -330 450 -390 701 -48 200 -46 114 -46
2152 -1 1576 2 1921 13 2000 36 241 115 455 239 647 255 393 666 651 1135 713
30 4 391 8 803 9 l747 1 0 -1064z m2510 1036 c158 -36 234 -63 399 -139 64
-30 193 -113 276 -178 330 -259 550 -661 592 -1082 10 -97 8 -3783 -1 -3873
-19 -172 -53 -305 -119 -460 -36 -85 -136 -263 -172 -308 -202 -252 -369 -390
-610 -503 -80 -38 -246 -97 -295 -105 -14 -3 -32 -7 -40 -9 -18 -5 -60 -12
-142 -24 -35 -5 -556 -10 -1163 -10 l-1100 -1 1 467 1 468 1199 1 1199 2 0
803 0 804 -1197 0 c-659 0 -1198 3 -1199 7 -1 10 -1 141 0 171 l1 22 308 -1
c338 -1 381 4 490 57 186 90 268 297 203 508 -11 37 -64 142 -119 236 -54 94
-159 275 -233 403 -142 248 -201 329 -353 489 -102 107 -161 145 -246 158 -25
4 -47 11 -50 15 -4 6 -5 2066 -1 2103 1 4 513 6 1139 4 1128 -3 1138 -3 1232
-25z m-5809 -2224 c1 -30 1 -2074 0 -2115 l-1 -32 -85 0 -85 0 -34 72 c-50
105 -98 297 -122 487 -3 25 -7 56 -9 70 -26 193 -26 693 0 905 17 141 22 170
41 270 24 121 61 239 94 305 l30 60 85 0 c81 0 85 -1 86 -22z m8059 15 c0 -5
-11 -43 -25 -86 -25 -83 -71 -291 -80 -367 -3 -25 -8 -65 -11 -90 -11 -81 -12
-94 -20 -210 -14 -203 -8 -678 10 -777 2 -10 7 -49 11 -88 4 -38 8 -77 10 -85
1 -8 6 -35 10 -60 16 -98 50 -244 74 -319 12 -35 21 -67 21 -72 0 -5 -50 -8
-112 -6 l-112 2 -23 40 c-53 94 -119 356 -138 550 -3 22 -7 65 -10 95 -14 140
-16 179 -16 385 0 257 7 373 37 585 28 193 73 361 125 466 l23 44 113 0 c62 0
113 -3 113 -7z m421 -150 c19 -57 64 -251 73 -318 3 -22 10 -71 15 -110 32
-230 35 -738 6 -955 -3 -19 -7 -57 -10 -85 -23 -196 -109 -505 -134 -479 -12
12 -69 176 -77 217 -3 18 -9 51 -15 75 -5 23 -12 59 -15 78 -3 20 -7 44 -9 53
-2 9 -6 44 -10 76 -4 33 -9 74 -11 90 -25 200 -25 661 0 870 14 113 19 152 22
170 2 11 9 47 14 80 14 78 55 226 82 294 l21 53 15 -27 c7 -15 22 -52 33 -82z
m-5067 -55 c18 -18 113 -172 211 -343 98 -170 189 -328 202 -350 47 -78 74
-145 71 -172 -6 -53 -16 -54 -520 -55 -255 0 -477 2 -494 6 -42 9 -60 44 -45
87 9 26 101 192 195 352 10 18 73 127 139 242 120 209 161 265 191 265 9 0 31
-15 50 -32z m2062 -2536 l0 -442 -2033 0 c-1619 0 -2033 3 -2034 13 -5 63 -3
854 2 862 5 7 694 10 2036 9 l2028 -1 1 -441z"/>
<path d="M4900 8249 c-52 -19 -77 -101 -44 -147 59 -85 184 -43 184 63 0 33
-48 84 -85 89 -16 2 -41 0 -55 -5z"/>
<path d="M3505 7804 c-112 -21 -124 -24 -189 -46 -347 -118 -626 -426 -707
-783 -22 -98 -24 -122 -23 -270 2 -182 26 -290 103 -450 121 -254 309 -431
612 -574 301 -143 557 -176 829 -107 98 25 249 101 338 170 195 150 336 382
381 626 3 19 6 96 5 170 0 107 -5 152 -23 220 -48 181 -164 445 -253 578 -200
298 -538 479 -893 479 -60 1 -141 -5 -180 -13z m359 -374 c386 -100 618 -499
517 -890 -80 -312 -353 -533 -674 -546 -164 -6 -290 29 -432 121 -125 81 -204
173 -265 309 -146 321 -37 707 255 902 186 125 385 159 599 104z"/>
<path d="M3570 7344 c-218 -41 -394 -185 -479 -393 -89 -215 -38 -478 127
-653 219 -231 543 -266 812 -87 161 107 269 315 271 521 2 262 -175 503 -432
589 -63 21 -236 34 -299 23z m216 -188 c219 -58 366 -283 329 -501 -62 -362
-500 -502 -755 -243 -84 86 -126 185 -129 304 -3 129 46 246 143 337 41 39
159 102 206 110 54 9 158 6 206 -7z"/>
<path d="M3595 7055 c-69 -16 -109 -39 -162 -91 -68 -68 -97 -141 -97 -239 1
-67 5 -90 29 -139 36 -76 97 -137 171 -172 83 -39 194 -40 275 -2 78 36 133
89 170 163 126 257 -106 546 -386 480z"/>
<path d="M4900 7198 c-49 -16 -73 -88 -49 -141 35 -77 162 -60 182 24 20 80
-54 145 -133 117z"/>
<path d="M4888 2322 c-72 -44 -61 -145 19 -179 31 -12 38 -12 71 4 92 45 72
174 -29 187 -22 2 -45 -2 -61 -12z"/>
<path d="M5503 8244 c-58 -29 -71 -104 -25 -155 46 -52 125 -40 158 23 44 85
-45 174 -133 132z"/>
<path d="M6644 7799 c-448 -93 -793 -448 -869 -894 -16 -90 -14 -304 3 -375 6
-25 13 -56 16 -70 22 -114 116 -305 204 -414 120 -149 232 -235 447 -341 242
-120 420 -167 614 -164 480 7 872 340 966 819 18 93 13 314 -9 414 -94 419
-357 777 -691 938 -67 32 -176 70 -240 82 -16 4 -41 9 -55 12 -14 4 -86 8
-160 9 -103 2 -157 -1 -226 -16z m399 -368 c103 -28 178 -67 271 -141 246
-195 334 -515 224 -820 -78 -219 -272 -396 -498 -455 -86 -23 -247 -27 -330
-9 -135 29 -255 92 -356 187 -217 203 -286 508 -180 791 131 347 514 544 869
447z"/>
<path d="M6847 7354 c-1 -1 -29 -4 -62 -7 -145 -12 -304 -98 -406 -220 -146
-174 -190 -406 -116 -611 36 -98 84 -170 163 -246 214 -204 523 -229 776 -63
210 138 320 413 263 659 -50 215 -221 397 -432 459 -47 14 -179 35 -186 29z
m130 -202 c87 -27 142 -62 203 -129 108 -118 146 -277 102 -425 -76 -262 -374
-394 -617 -273 -203 100 -300 317 -235 526 73 236 319 372 547 301z"/>
<path d="M6791 7059 c-153 -30 -270 -165 -276 -319 -7 -145 73 -270 212 -332
72 -32 189 -31 264 4 247 113 276 440 52 596 -68 47 -169 68 -252 51z"/>
<path d="M5504 7194 c-36 -17 -54 -50 -54 -98 0 -77 116 -121 167 -62 43 51
40 112 -8 148 -34 26 -69 30 -105 12z"/>
<path d="M5525 2331 c-40 -12 -56 -28 -70 -67 -11 -33 -11 -43 2 -69 9 -16 16
-31 17 -32 1 -1 18 -9 37 -16 67 -28 139 22 139 95 0 56 -71 106 -125 89z"/>
<path d="M3365 3849 c-2 -3 -4 -157 -4 -342 l0 -337 1956 -2 c1075 -2 1957 0
1960 5 4 6 6 454 4 637 l-1 45 -1956 0 c-1076 0 -1957 -3 -1959 -6z m415 -286
l0 -153 70 0 70 0 0 153 0 154 140 0 140 0 1 -46 c0 -25 0 -94 -1 -153 l-1
-108 70 0 71 0 0 154 0 153 140 0 c135 0 140 -1 141 -21 0 -12 1 -81 1 -153
l0 -133 69 0 69 0 0 153 0 154 140 0 c121 0 140 -2 141 -16 1 -9 1 -78 1 -153
l0 -138 69 0 69 0 0 154 0 153 140 0 140 0 1 -26 c1 -14 1 -83 1 -153 l0 -128
69 0 69 0 1 53 c0 28 0 97 -1 153 l-1 101 138 0 c76 0 140 -4 143 -8 3 -4 5
-73 4 -153 l-1 -146 68 0 68 0 3 153 3 152 135 1 c74 1 137 -2 140 -7 3 -4 5
-73 4 -153 l-1 -146 69 0 c67 0 68 0 69 28 0 15 0 84 0 153 l0 126 142 0 142
0 0 -151 0 -151 68 -3 c64 -3 67 -2 68 20 0 13 1 82 1 153 l0 131 139 1 c96 0
139 -3 140 -11 1 -6 2 -98 3 -203 1 -187 1 -193 -19 -194 -11 -1 -831 -2
-1823 -3 l-1802 -1 0 206 0 206 140 0 140 0 0 -154z"/>
<path d="M2800 10437 c4 -5 55 -34 182 -105 18 -11 105 -59 193 -109 88 -49
183 -102 210 -118 113 -62 175 -100 175 -105 -1 -3 -63 -49 -138 -102 -237
-169 -307 -219 -321 -233 -12 -12 -12 -14 5 -13 10 1 35 -2 54 -5 59 -11 443
-75 485 -81 22 -4 51 -9 65 -11 14 -2 120 -20 235 -39 116 -19 225 -37 243
-40 17 -3 47 -8 65 -11 17 -3 43 -7 57 -10 14 -2 45 -7 70 -11 24 -3 49 -8 55
-11 7 -4 7 -3 0 4 -5 6 -170 69 -365 141 -508 187 -557 206 -559 215 -1 4 97
81 218 171 l220 164 -147 41 c-81 22 -181 49 -222 60 -92 24 -737 199 -765
208 -11 3 -18 3 -15 0z"/>
<path d="M8310 10409 c-58 -15 -121 -33 -140 -39 -19 -5 -218 -60 -441 -120
-224 -60 -416 -113 -427 -117 -17 -7 13 -33 196 -169 119 -88 217 -165 219
-170 2 -6 -14 -16 -34 -23 -54 -19 -793 -292 -823 -304 -14 -5 -31 -11 -38
-13 -37 -7 -21 -16 19 -10 48 7 58 9 154 25 33 6 76 13 95 16 19 3 60 10 90
15 30 5 71 11 90 14 19 3 49 8 65 11 17 3 44 7 60 10 17 3 41 7 55 10 23 4 54
9 140 21 19 3 42 7 50 9 8 2 35 7 60 10 25 3 52 8 60 10 8 3 33 7 55 10 22 3
50 7 62 9 11 3 43 8 70 12 26 3 57 8 68 10 48 10 91 17 103 17 7 0 11 4 10 8
-3 7 -166 127 -380 279 -43 30 -78 58 -78 62 0 3 44 31 98 61 53 30 115 64
137 77 22 12 137 77 255 143 240 134 280 157 265 156 -5 -1 -57 -14 -115 -30z"/>
</g>
</svg>
