<?xml version="1.0" ?><svg data-name="Layer 1" id="Layer_1" viewBox="0 0 100 100" xmlns="http://www.w3.org/2000/svg"><title/><path d="M71.87,25.91H28.13a2,2,0,0,0-2,2V51.74a2,2,0,0,0,2,2H71.87a2,2,0,0,0,2-2V27.91A2,2,0,0,0,71.87,25.91Zm-2,23.83H30.13V29.91H69.87V49.74ZM46.34,61.85V95.56a2,2,0,0,1-4,0V63.85H31.12V75.58a2,2,0,0,1-4,0V61.85a2,2,0,0,1,2-2H44.34A2,2,0,0,1,46.34,61.85Zm26.54,0V75.58a2,2,0,0,1-4,0V63.85H57.66V95.56a2,2,0,0,1-4,0V61.85a2,2,0,0,1,2-2H70.88A2,2,0,0,1,72.88,61.85Zm-32.8-22a3.39,3.39,0,1,1,3.39,3.39A3.39,3.39,0,0,1,40.08,39.83Zm13.05,0a3.39,3.39,0,1,1,3.39,3.39A3.39,3.39,0,0,1,53.13,39.83ZM46,8.43a4,4,0,1,1,6,3.43v9.21a2,2,0,0,1-4,0V11.86A4,4,0,0,1,46,8.43Z"/></svg>