<svg width="1016" height="506" fill="none" xmlns="http://www.w3.org/2000/svg"><path fill="#fff" d="M0 0h1016v506H0z"/><path d="M0 505.803h1016V.003H0v505.8z" fill="#FD9D52"/><path d="M508 505.803h508V.003H508v505.8z" fill="#DD45D3"/><path d="M914.54 256.92h-20.07c-6.65 0-12.04 5.39-12.04 12.04l-19.52-78.1c-2.68-10.72-12.31-18.24-23.37-18.24H684.46c-11.05 0-20.69 7.52-23.37 18.24l-19.52 78.1c0-6.65-5.39-12.04-12.04-12.04h-20.07a4.01 4.01 0 0 0-4.01 4.01v12.04a8.03 8.03 0 0 0 8.03 8.03h22.08l-12.98 25.96a48.221 48.221 0 0 0-5.09 21.54v60.89h96.36V365.3h96.33v24.09h96.36V328.5c0-7.48-1.74-14.85-5.09-21.54l-13-25.96h22.08a8.03 8.03 0 0 0 8.03-8.03v-12.04c0-2.22-1.8-4.01-4.02-4.01z" fill="#030202"/><path d="M672.05 196.7h179.9l11.31 45.25c1.9 7.6-3.85 14.96-11.68 14.96H672.42c-7.83 0-13.58-7.36-11.68-14.96l11.31-45.25zM834.26 317.13H689.74v24.08h144.52v-24.08zM641.57 389.39h-24.09v12.04c0 6.65 5.39 12.04 12.04 12.04h24.08c6.65 0 12.04-5.39 12.04-12.04v-12.04h-24.07zM882.43 389.39h-24.09v12.04c0 6.65 5.39 12.04 12.04 12.04h24.08c6.65 0 12.04-5.39 12.04-12.04v-12.04h-24.07z" fill="#943CFF"/><path d="M689.74 317.13h-48.18c0 13.3 10.78 24.09 24.09 24.09h48.18c0-13.3-10.79-24.09-24.09-24.09zM858.34 317.13h-24.09c-13.3 0-24.09 10.78-24.09 24.09h48.18c13.3 0 24.09-10.78 24.09-24.09h-24.09z" fill="#fff"/><path d="M713.83 365.3c-13.3 0-24.09 10.78-24.09 24.09h144.52c0-13.3-10.78-24.09-24.09-24.09h-96.34z" fill="#943CFF"/><path d="M782.07 377.35h-40.14a4.01 4.01 0 0 1-4.01-4.01v-16.06c0-2.22 1.8-4.01 4.01-4.01h40.14c2.22 0 4.01 1.8 4.01 4.01v16.06c.01 2.21-1.79 4.01-4.01 4.01z" fill="#fff"/><path d="M762 335.19a6.02 6.02 0 1 0 0-12.04 6.02 6.02 0 0 0 0 12.04z" fill="#030202"/><path d="M753.54 256.92l60.22-60.22h-34.07l-60.21 60.22h34.06zM774.71 256.92h17.03l60.21-60.22h-17.03l-60.21 60.22z" fill="#fff"/><path d="M742.9 305.09l36.13-36.13H762l-36.13 36.13h17.03zM776.97 305.09l36.12-36.13h-17.03l-36.13 36.13h17.04z" fill="#943CFF"/><path d="M811.03 305.09l36.13-36.13h-17.03L794 305.09h17.03z" fill="#fff"/><path d="M1016 413.67H0V506h1016v-92.33z" fill="#030202"/><path d="M1016 453.81H0v12.04h1016v-12.04z" fill="#943CFF"/><path d="M321.44 148.53H186.56v12.04h134.88v-12.04zM406.54 256.92h-20.07c-6.65 0-12.04 5.39-12.04 12.04l-19.52-78.1c-2.68-10.72-12.31-18.24-23.37-18.24H176.46c-11.05 0-20.69 7.52-23.37 18.24l-19.52 78.1c0-6.65-5.39-12.04-12.04-12.04h-20.07a4.01 4.01 0 0 0-4.01 4.01v12.04a8.03 8.03 0 0 0 8.03 8.03h22.08l-12.98 25.96a48.221 48.221 0 0 0-5.09 21.54v60.89h96.36V365.3h96.33v24.09h96.36V328.5c0-7.48-1.74-14.85-5.09-21.54l-13-25.96h22.08a8.03 8.03 0 0 0 8.03-8.03v-12.04c0-2.22-1.8-4.01-4.02-4.01z" fill="#030202"/><path d="M326.26 317.13H181.74v24.08h144.52v-24.08zM133.57 389.39h-24.09v12.04c0 6.65 5.39 12.04 12.04 12.04h24.08c6.65 0 12.04-5.39 12.04-12.04v-12.04h-24.07zM374.43 389.39h-24.09v12.04c0 6.65 5.39 12.04 12.04 12.04h24.08c6.65 0 12.04-5.39 12.04-12.04v-12.04h-24.07z" fill="#943CFF"/><path d="M181.74 317.13h-48.18c0 13.3 10.78 24.09 24.09 24.09h48.18c0-13.3-10.79-24.09-24.09-24.09zM350.34 317.13h-24.09c-13.3 0-24.09 10.78-24.09 24.09h48.18c13.3 0 24.09-10.78 24.09-24.09h-24.09z" fill="#fff"/><path d="M205.83 365.3c-13.3 0-24.09 10.78-24.09 24.09h144.52c0-13.3-10.78-24.09-24.09-24.09h-96.34z" fill="#943CFF"/><path d="M274.07 377.35h-40.14a4.01 4.01 0 0 1-4.01-4.01v-16.06c0-2.22 1.8-4.01 4.01-4.01h40.14c2.22 0 4.01 1.8 4.01 4.01v16.06c.01 2.21-1.79 4.01-4.01 4.01z" fill="#fff"/><path d="M254 335.19a6.02 6.02 0 1 0 0-12.04 6.02 6.02 0 0 0 0 12.04z" fill="#030202"/><path d="M164.05 196.7h179.9l11.31 45.25c1.9 7.6-3.85 14.96-11.68 14.96H164.42c-7.83 0-13.58-7.36-11.68-14.96l11.31-45.25z" fill="#943CFF"/><path d="M245.54 256.92l60.22-60.22h-34.07l-60.21 60.22h34.06zM266.71 256.92h17.03l60.21-60.22h-17.03l-60.21 60.22z" fill="#fff"/><path d="M234.9 305.09l36.13-36.13H254l-36.13 36.13h17.03zM268.97 305.09l36.12-36.13h-17.03l-36.13 36.13h17.04z" fill="#943CFF"/><path d="M303.03 305.09l36.13-36.13h-17.03L286 305.09h17.03z" fill="#fff"/><path d="M182.91 148.53v-8.03c0-2.22-1.8-4.01-4.01-4.01h-4.01a4.01 4.01 0 0 0-4.01 4.01v16.06c0 2.22 1.8 4.01 4.01 4.01h13.62v-12.04h-5.6zM325.09 148.53v-8.03c0-2.22 1.8-4.01 4.01-4.01h4.01c2.22 0 4.01 1.8 4.01 4.01v16.06c0 2.22-1.8 4.01-4.01 4.01h-13.62v-12.04h5.6zM279.35 112.4h-50.7a4.01 4.01 0 0 0-4.01 4.01v8.03h58.73v-8.03c0-2.21-1.8-4.01-4.02-4.01z" fill="#030202"/><path d="M264.04 112.4h-20.07V96.34c0-2.22 1.8-4.01 4.01-4.01h12.04c2.22 0 4.01 1.8 4.01 4.01v16.06h.01z" fill="#fff"/><path d="M224.63 136.49h58.73c19.92 0 36.13 16.21 36.13 36.13h12.04c0-26.6-21.57-48.17-48.17-48.17h-58.73c-26.6 0-48.17 21.57-48.17 48.17h12.04c.01-19.93 16.21-36.13 36.13-36.13z" fill="#943CFF"/><path d="M508.38 229.22c44.343 0 80.29-35.947 80.29-80.29s-35.947-80.29-80.29-80.29-80.29 35.947-80.29 80.29 35.947 80.29 80.29 80.29z" fill="#030202"/><path d="M486.58 169.64l-14.53-41.43h6.42l7.23 20.55 4.5 14.13h.4l4.5-14.13 7.39-20.55h6.18l-14.61 41.43h-7.48zM512.99 162.5l4.58-3.69c3.21 4.01 7.07 6.34 12.28 6.34 5.46 0 8.67-2.49 8.67-6.74 0-3.21-1.77-5.7-7.23-6.5l-3.29-.48c-7.63-1.12-13.33-4.26-13.33-11.96 0-8.19 6.34-12.2 14.77-12.2 6.66 0 11.08 2.49 14.45 6.66l-4.26 3.85c-1.85-2.57-5.38-5.06-10.68-5.06s-8.11 2.49-8.11 6.42c0 4.01 2.81 5.62 7.95 6.42l3.21.48c9.15 1.37 12.69 5.38 12.69 11.64 0 8.03-5.86 12.93-15.34 12.93-7.61 0-12.67-3.22-16.36-8.11zM749.26 190.68a6.02 6.02 0 1 0 0-12.04 6.02 6.02 0 0 0 0 12.04z" fill="#fff"/></svg>